<?xml version="1.0" encoding="utf-8"?>
<!-- Generator: Adobe Illustrator 23.0.5, SVG Export Plug-In . SVG Version: 6.00 Build 0)  -->
<svg version="1.1" id="Слой_1" xmlns="http://www.w3.org/2000/svg" xmlns:xlink="http://www.w3.org/1999/xlink" x="0px" y="0px"
	 viewBox="0 0 350 420.96" style="enable-background:new 0 0 350 420.96;" xml:space="preserve">
<style type="text/css">
	.st0{fill:#F3DD47;}
	.st1{fill:none;stroke:#0D0E0F;stroke-width:3;stroke-miterlimit:10;}
	.st2{fill:none;stroke:#0D0E0F;stroke-width:2;stroke-miterlimit:10;}
</style>
<polygon class="st2" points="234.07,54.68 84,131.87 84,140.04 243.36,58.07 "/>
<polygon class="st2" points="215.7,47.99 84,115.59 84,123.71 224.77,51.3 "/>
<polygon class="st2" points="224.77,51.3 84,123.71 84,131.87 234.07,54.68 "/>
<polygon class="st2" points="206.39,44.6 84,107.43 84,115.59 215.7,47.99 "/>
<polygon class="st2" points="179.38,34.75 84,84.87 84,93.07 188.59,38.11 "/>
<polygon class="st2" points="188.59,38.11 84,93.07 84,101.26 197.8,41.47 "/>
<polygon class="st2" points="197.8,41.47 84,101.26 84,107.43 206.39,44.6 "/>
<polygon class="st2" points="254.97,62.3 252.66,61.46 84,148.21 84,156.38 254.94,68.45 "/>
<polygon class="st2" points="254.9,76.64 84,164.55 84,172.71 254.86,84.83 "/>
<polygon class="st2" points="254.86,84.83 84,172.71 84,180.88 254.82,93.02 "/>
<polygon class="st2" points="243.36,58.07 84,140.04 84,148.21 252.66,61.46 "/>
<polygon class="st2" points="254.82,93.02 84,180.88 84,189.26 254.78,102.65 "/>
<polygon class="st2" points="254.94,68.45 84,156.38 84,164.55 254.9,76.64 "/>
<polygon class="st2" points="170.16,31.4 84,76.67 84,84.87 179.38,34.75 "/>
<polygon class="st2" points="142.52,21.32 84,52.07 84,60.27 151.73,24.68 "/>
<polygon class="st2" points="211.1,403.29 253.44,381.14 253.48,372.93 202.4,399.64 "/>
<polygon class="st2" points="228.49,410.58 253.36,397.57 253.4,389.35 219.79,406.93 "/>
<polygon class="st2" points="202.4,399.64 253.48,372.93 253.52,364.71 193.69,395.99 "/>
<polygon class="st2" points="193.69,395.99 253.52,364.71 253.56,356.5 184.99,392.34 "/>
<polygon class="st2" points="253.25,420.96 253.28,413.99 245.87,417.87 "/>
<polygon class="st2" points="160.95,28.04 84,68.47 84,76.67 170.16,31.4 "/>
<polygon class="st2" points="245.87,417.87 253.28,413.99 253.32,405.78 237.18,414.22 "/>
<polygon class="st2" points="237.18,414.22 253.32,405.78 253.36,397.57 228.49,410.58 "/>
<polygon class="st2" points="133.31,17.97 84,43.87 84,52.07 142.52,21.32 "/>
<polygon class="st2" points="254.78,102.65 84,189.26 84,197.41 254.74,110.82 "/>
<polygon class="st2" points="151.73,24.68 84,60.27 84,68.47 160.95,28.04 "/>
<polygon class="st2" points="92.44,3.08 84,7.92 84,14.64 99.93,5.81 84,14.64 84,21.12 108.12,8.79 84,21.12 84,28.32 115.83,11.6 
	84,28.32 84,35.67 124.03,14.64 84,35.67 84,43.87 133.31,17.97 "/>
<polygon class="st2" points="84,0 84,7.92 92.44,3.08 "/>
<polygon class="st2" points="184.99,392.34 253.56,356.5 253.6,348.29 176.3,388.7 "/>
<polygon class="st2" points="219.79,406.93 253.4,389.35 253.44,381.14 211.1,403.29 "/>
<polygon class="st2" points="253.99,266.52 89.35,352.24 98.06,355.9 253.95,274.73 "/>
<polygon class="st2" points="253.95,274.73 98.06,355.9 106.77,359.55 253.91,282.93 "/>
<polygon class="st2" points="253.87,291.14 115.48,363.2 124.12,366.82 253.83,299 "/>
<polygon class="st2" points="253.91,282.93 106.77,359.55 115.48,363.2 253.87,291.14 "/>
<polygon class="st2" points="254.03,258.31 84,346.85 84,350 89.35,352.24 253.99,266.52 "/>
<polygon class="st2" points="254.11,241.9 84,330.48 84,338.66 254.07,250.11 "/>
<polygon class="st2" points="254.07,250.11 84,338.66 84,346.85 254.03,258.31 "/>
<polygon class="st2" points="253.68,331.85 158.9,381.4 167.6,385.05 253.64,340.06 "/>
<polygon class="st2" points="253.72,323.64 150.21,377.76 158.9,381.4 253.68,331.85 "/>
<polygon class="st2" points="254.15,233.69 84,322.29 84,330.48 254.11,241.9 "/>
<polygon class="st2" points="167.6,385.05 176.3,388.7 253.6,348.29 253.64,340.06 "/>
<polygon class="st2" points="253.8,307.21 132.82,370.47 141.51,374.11 253.76,315.42 "/>
<polygon class="st2" points="253.83,299 124.12,366.82 132.82,370.47 253.8,307.21 "/>
<polygon class="st2" points="253.76,315.42 141.51,374.11 150.21,377.76 253.72,323.64 "/>
<polygon class="st2" points="254.23,217.28 84,305.92 84,314.1 254.19,225.49 "/>
<polygon class="st2" points="254.58,143.85 84,230.03 84,238.17 254.54,152.01 "/>
<polygon class="st2" points="254.54,152.01 84,238.17 84,246.32 254.5,160.17 "/>
<polygon class="st2" points="254.5,160.17 84,246.32 84,254.46 254.46,168.33 "/>
<polygon class="st2" points="254.66,127.52 84,213.74 84,221.89 254.62,135.68 "/>
<polygon class="st2" points="254.7,118.99 84,205.56 84,213.74 254.66,127.52 "/>
<polygon class="st2" points="254.46,168.33 84,254.46 84,264.24 254.43,175.5 "/>
<polygon class="st2" points="254.62,135.68 84,221.89 84,230.03 254.58,143.85 "/>
<polygon class="st2" points="254.34,192.66 84,281.36 84,289.55 254.3,200.87 "/>
<polygon class="st2" points="254.27,209.08 84,297.73 84,305.92 254.23,217.28 "/>
<polygon class="st2" points="254.43,175.5 84,264.24 84,273.18 254.38,184.46 "/>
<polygon class="st2" points="254.74,110.82 84,197.41 84,205.56 254.7,118.99 "/>
<polygon class="st2" points="254.3,200.87 84,289.55 84,297.73 254.27,209.08 "/>
<polygon class="st2" points="254.38,184.46 84,273.18 84,281.36 254.34,192.66 "/>
<polygon class="st2" points="254.19,225.49 84,314.1 84,322.29 254.15,233.69 "/>
</svg>
